<?xml version="1.0" encoding="UTF-8" standalone="no"?>
<!-- Generator: Adobe Illustrator 16.0.0, SVG Export Plug-In . SVG Version: 6.00 Build 0)  -->

<svg
   version="1.1"
   id="Capa_1"
   x="0px"
   y="0px"
   width="28.027px"
   height="28.028px"
   viewBox="0 0 28.027 28.028"
   style="enable-background:new 0 0 28.027 28.028;"
   xml:space="preserve"
   sodipodi:docname="message-svgrepo-com.svg"
   inkscape:version="1.1 (c68e22c387, 2021-05-23)"
   xmlns:inkscape="http://www.inkscape.org/namespaces/inkscape"
   xmlns:sodipodi="http://sodipodi.sourceforge.net/DTD/sodipodi-0.dtd"
   xmlns="http://www.w3.org/2000/svg"
   xmlns:svg="http://www.w3.org/2000/svg"><defs
   id="defs47" /><sodipodi:namedview
   id="namedview45"
   pagecolor="#ffffff"
   bordercolor="#999999"
   borderopacity="1"
   inkscape:pageshadow="0"
   inkscape:pageopacity="0"
   inkscape:pagecheckerboard="0"
   showgrid="false"
   inkscape:zoom="26.865991"
   inkscape:cx="14.014"
   inkscape:cy="14.014"
   inkscape:window-width="1920"
   inkscape:window-height="1017"
   inkscape:window-x="-8"
   inkscape:window-y="-8"
   inkscape:window-maximized="1"
   inkscape:current-layer="Capa_1" />
<g
   id="g12"
   style="fill:#e60012;fill-opacity:1">
	<g
   id="g10"
   style="fill:#e60012;fill-opacity:1">
		<path
   d="m 17.146,13.426 10.77,-5.383 c -0.4,-1.682 -1.91,-2.947 -3.71,-2.947 H 3.823 c -1.799,0 -3.311,1.265 -3.71,2.947 l 10.769,5.383 c 1.62,0.811 4.644,0.811 6.264,0 z"
   id="path2"
   style="fill:#e60012;fill-opacity:1" />
		<path
   d="m 17.717,14.565 c -0.996,0.499 -2.311,0.772 -3.703,0.772 -1.392,0 -2.707,-0.274 -3.703,-0.772 L 7.333,13.076 0,16.743 v 2.367 c 0,2.102 1.72,3.821 3.822,3.821 h 20.383 c 2.102,0 3.822,-1.72 3.822,-3.821 v -2.367 l -7.333,-3.666 z"
   id="path4"
   style="fill:#e60012;fill-opacity:1" />
		<polygon
   points="22.119,12.365 28.027,15.319 28.027,9.411 "
   id="polygon6"
   style="fill:#e60012;fill-opacity:1" />
		<polygon
   points="0.001,9.41 0.001,15.319 5.909,12.365 "
   id="polygon8"
   style="fill:#e60012;fill-opacity:1" />
	</g>
</g>
<g
   id="g14">
</g>
<g
   id="g16">
</g>
<g
   id="g18">
</g>
<g
   id="g20">
</g>
<g
   id="g22">
</g>
<g
   id="g24">
</g>
<g
   id="g26">
</g>
<g
   id="g28">
</g>
<g
   id="g30">
</g>
<g
   id="g32">
</g>
<g
   id="g34">
</g>
<g
   id="g36">
</g>
<g
   id="g38">
</g>
<g
   id="g40">
</g>
<g
   id="g42">
</g>
</svg>
