<?xml version="1.0" encoding="UTF-8" standalone="no"?>
<svg
   version="1.0"
   width="807.43829"
   height="70"
   viewBox="0 0 605.57874 52.499999"
   preserveAspectRatio="xMidYMid meet"
   id="svg10"
   sodipodi:docname="1999.svg"
   inkscape:version="1.1 (c68e22c387, 2021-05-23)"
   xmlns:inkscape="http://www.inkscape.org/namespaces/inkscape"
   xmlns:sodipodi="http://sodipodi.sourceforge.net/DTD/sodipodi-0.dtd"
   xmlns:xlink="http://www.w3.org/1999/xlink"
   xmlns="http://www.w3.org/2000/svg"
   xmlns:svg="http://www.w3.org/2000/svg">
  <defs
     id="defs14">
    <linearGradient
       inkscape:collect="always"
       id="linearGradient15514">
      <stop
         style="stop-color:#cccccc;stop-opacity:1"
         offset="0"
         id="stop15510" />
      <stop
         style="stop-color:#818181;stop-opacity:0"
         offset="1"
         id="stop15512" />
    </linearGradient>
    <linearGradient
       inkscape:collect="always"
       xlink:href="#linearGradient15514"
       id="linearGradient9216"
       x1="250"
       y1="28.143845"
       x2="0"
       y2="28.143845"
       gradientUnits="userSpaceOnUse"
       gradientTransform="translate(0,0.63895368)" />
    <linearGradient
       inkscape:collect="always"
       xlink:href="#linearGradient15514"
       id="linearGradient15516"
       gradientUnits="userSpaceOnUse"
       x1="0"
       y1="28.143845"
       x2="250"
       y2="28.143845"
       gradientTransform="translate(0,0.63895368)" />
    <linearGradient
       inkscape:collect="always"
       xlink:href="#linearGradient15514"
       id="linearGradient16000"
       gradientUnits="userSpaceOnUse"
       x1="0"
       y1="28.143845"
       x2="250"
       y2="28.143845"
       gradientTransform="rotate(180,302.78936,28.595902)" />
    <linearGradient
       inkscape:collect="always"
       xlink:href="#linearGradient15514"
       id="linearGradient16002"
       gradientUnits="userSpaceOnUse"
       x1="250"
       y1="28.143845"
       x2="0"
       y2="28.143845"
       gradientTransform="rotate(180,302.78936,28.595902)" />
  </defs>
  <sodipodi:namedview
     id="namedview12"
     pagecolor="#ffffff"
     bordercolor="#999999"
     borderopacity="1"
     inkscape:pageshadow="0"
     inkscape:pageopacity="0"
     inkscape:pagecheckerboard="0"
     inkscape:document-units="pt"
     showgrid="true"
     inkscape:snap-to-guides="false"
     inkscape:zoom="2.8284271"
     inkscape:cx="449.54314"
     inkscape:cy="31.289475"
     inkscape:window-width="1920"
     inkscape:window-height="1017"
     inkscape:window-x="-8"
     inkscape:window-y="-8"
     inkscape:window-maximized="1"
     inkscape:current-layer="svg10"
     inkscape:snap-page="false"
     inkscape:snap-grids="false"
     showguides="true"
     inkscape:guide-bbox="true"
     inkscape:lockguides="false"
     units="px"
     height="70px">
    <inkscape:grid
       type="xygrid"
       id="grid17769"
       originx="-46.138719"
       originy="-0.15654115" />
  </sodipodi:namedview>
  <g
     transform="matrix(0.1,0,0,-0.1,-46.138717,29.843459)"
     fill="#000000"
     stroke="none"
     id="g8"
     style="fill:#f50101;fill-opacity:1">
    <path
       d="m 3464,285 c -4,-9 -3,-35 1,-58 3,-23 9,-57 12,-74 3,-18 9,-33 13,-33 9,0 22,70 24,130 1,40 -2,45 -22,48 -13,2 -25,-3 -28,-13 z"
       id="path2"
       style="fill:#f50101;fill-opacity:1" />
    <path
       d="m 3376,223 c -5,-12 -1,-23 14,-33 66,-48 66,-45 3,-47 -32,-1 -76,-4 -98,-5 -35,-3 -40,0 -43,21 -2,13 2,28 10,32 20,13 25,11 24,-13 -1,-17 5,-23 19,-23 23,0 32,30 15,50 -30,36 -100,5 -100,-43 0,-26 33,-62 58,-62 23,-1 -53,-68 -86,-77 -30,-7 -58,18 -47,44 6,16 8,16 16,-4 9,-25 16,-27 37,-14 18,11 12,41 -10,54 -12,8 -24,8 -42,-1 -20,-9 -26,-19 -26,-45 0,-43 15,-57 62,-57 30,0 47,8 75,34 l 37,33 15,-31 c 18,-34 61,-47 87,-25 11,9 18,9 22,2 9,-14 135,-14 144,0 4,7 11,7 22,-2 26,-22 69,-9 87,25 l 15,31 37,-33 c 29,-27 45,-34 77,-34 43,0 60,18 60,65 0,50 -79,60 -88,10 -7,-35 43,-41 51,-7 3,15 5,15 12,-1 11,-26 -16,-51 -48,-43 -13,3 -44,23 -68,45 -32,29 -38,38 -22,34 27,-6 63,28 63,60 0,47 -71,77 -100,42 -17,-20 -8,-50 15,-50 14,0 20,6 19,23 0,16 4,21 13,17 8,-3 17,-5 19,-5 2,0 4,-11 4,-25 0,-34 -20,-40 -90,-25 -67,14 -101,9 -132,-22 -20,-20 -21,-20 -31,-2 -6,11 -12,30 -13,43 -6,56 -73,104 -88,64 z m 77,-125 c 25,-29 22,-46 -8,-40 -17,3 -25,0 -25,-9 0,-8 -6,-3 -13,11 -15,30 -60,35 -65,7 -4,-22 27,-35 40,-16 7,11 8,9 6,-6 -2,-14 -11,-20 -28,-20 -22,0 -25,4 -25,40 0,32 5,42 25,52 31,15 69,7 93,-19 z m 162,20 c 26,-12 40,-42 33,-75 -5,-26 -52,-25 -56,2 -2,15 -1,17 6,6 13,-19 44,-6 40,16 -5,28 -50,23 -65,-7 -7,-14 -13,-19 -13,-11 0,9 -8,12 -25,9 -14,-3 -25,-1 -25,4 0,20 22,50 43,58 30,12 32,12 62,-2 z M 3465,30 c -3,-5 -12,-10 -18,-10 -7,0 -6,4 3,10 19,12 23,12 15,0 z m 70,-8 c -3,-3 -11,0 -18,7 -9,10 -8,11 6,5 10,-3 15,-9 12,-12 z"
       id="path4"
       style="fill:#f50101;fill-opacity:1" />
    <path
       d="m 3542,215 c -22,-28 -37,-64 -29,-71 2,-3 23,8 46,23 30,19 41,33 39,47 -4,31 -33,31 -56,1 z"
       id="path6"
       style="fill:#f50101;fill-opacity:1" />
  </g>
  <path
     style="opacity:0.6;fill:url(#linearGradient15516);fill-opacity:1;stroke:url(#linearGradient9216);stroke-width:1.5;stroke-linecap:butt;stroke-linejoin:miter;stroke-miterlimit:4;stroke-dasharray:none;stroke-opacity:1"
     d="m 0,28.782799 c 249.4318,0 250,0 250,0"
     id="path1673" />
  <path
     style="opacity:0.6;fill:url(#linearGradient16000);fill-opacity:1;stroke:url(#linearGradient16002);stroke-width:1.5;stroke-linecap:butt;stroke-linejoin:miter;stroke-miterlimit:4;stroke-dasharray:none;stroke-opacity:1"
     d="m 605.57873,29.047964 c -249.4318,0 -250,0 -250,0"
     id="path15998" />
  <text
     xml:space="preserve"
     style="font-style:normal;font-weight:normal;font-size:20px;line-height:1.25;font-family:sans-serif;fill:#f50101;fill-opacity:1;stroke:none;stroke-width:0.75"
     x="279.74911"
     y="48.790367"
     id="text7144"><tspan
       sodipodi:role="line"
       id="tspan7142"
       style="font-style:normal;font-variant:normal;font-weight:bold;font-stretch:normal;font-size:20px;font-family:sans-serif;-inkscape-font-specification:'sans-serif Bold';fill:#f50101;fill-opacity:1;stroke-width:0.75"
       x="279.74911"
       y="48.790367">1999</tspan></text>
</svg>
